<?xml version="1.0" encoding="UTF-8" standalone="no"?>
<!-- Created with Inkscape (http://www.inkscape.org/) -->

<svg
   version="1.1"
   id="svg2"
   width="2204.8479"
   height="2204.8533"
   viewBox="0 0 2204.8479 2204.8533"
   sodipodi:docname="favicon.svg"
   inkscape:version="1.3.2 (091e20ef0f, 2023-11-25, custom)"
   xmlns:inkscape="http://www.inkscape.org/namespaces/inkscape"
   xmlns:sodipodi="http://sodipodi.sourceforge.net/DTD/sodipodi-0.dtd"
   xmlns="http://www.w3.org/2000/svg"
   xmlns:svg="http://www.w3.org/2000/svg">
  <defs
     id="defs6" />
  <sodipodi:namedview
     id="namedview4"
     pagecolor="#ffffff"
     bordercolor="#000000"
     borderopacity="0.25"
     inkscape:showpageshadow="2"
     inkscape:pageopacity="0.0"
     inkscape:pagecheckerboard="0"
     inkscape:deskcolor="#d1d1d1"
     inkscape:zoom="0.2728558"
     inkscape:cx="1103.1468"
     inkscape:cy="1104.9792"
     inkscape:window-width="1920"
     inkscape:window-height="1131"
     inkscape:window-x="0"
     inkscape:window-y="0"
     inkscape:window-maximized="1"
     inkscape:current-layer="g8" />
  <g
     id="g8"
     inkscape:groupmode="layer"
     inkscape:label="ink_ext_XXXXXX"
     transform="matrix(1.3333333,0,0,-1.3333333,-311.79199,2517.5466)">
    <g
       id="g10"
       transform="scale(0.1)">
      <path
         d="m 6471.02,13506.5 c 1591.95,0 2882.5,-1290.5 2882.5,-2882.4 0,-1592 -1290.55,-2882.5 -2882.5,-2882.5 -1591.96,0 -2882.43,1290.5 -2882.43,2882.5 0,1591.9 1290.47,2882.4 2882.43,2882.4 z m 737.11,2750.4 c 601.56,0 1089.21,-487.6 1089.21,-1089.1 0,-601.5 -487.65,-1089.2 -1089.21,-1089.2 -601.53,0 -1089.15,487.7 -1089.15,1089.2 0,601.5 487.62,1089.1 1089.15,1089.1 z M 10011.7,5665.2 c 0,-245.1 -198.77,-443.8 -443.89,-443.8 -245.11,0 -443.83,198.7 -443.83,443.8 0,245.2 198.72,443.9 443.83,443.9 245.12,0 443.89,-198.7 443.89,-443.9 z m 1300.1,10525.7 c 923.6,0 1672.3,-748.6 1672.3,-1672.2 0,-923.6 -748.7,-1672.3 -1672.3,-1672.3 -923.6,0 -1672.27,748.7 -1672.27,1672.3 0,923.6 748.67,1672.2 1672.27,1672.2 z m 2486.1,-7507.4 c 0,-528.6 -428.5,-957.2 -957.2,-957.2 -528.6,0 -957.1,428.6 -957.1,957.2 0,528.6 428.5,957.1 957.1,957.1 528.7,0 957.2,-428.5 957.2,-957.1 z m -3191.3,-6290 c -2633.12,0 -4978.63,1231 -6492.77,3148.8 C 5521.8,4430.5 7299.96,3766.9 9233.2,3766.9 c 4566.4,0 8268.2,3701.8 8268.2,8268.1 0,1875.2 -624.4,3604.4 -1676.4,4991.5 -1423.3,1159.6 -3239.5,1855.1 -5218.4,1855.1 -4566.4,0 -8268.16,-3701.8 -8268.16,-8268.2 0,-4566.4 3701.76,-8268.2 8268.16,-8268.2 4566.4,0 8268.2,3701.8 8268.2,8268.2 0,8.1 -0.3,16.1 -0.3,24.1 -13.1,-4555.2 -3709.6,-8244 -8267.9,-8244"
         style="fill:#e9e9e9;fill-opacity:1;fill-rule:nonzero;stroke:none"
         id="path12" />
      <path
         d="m 7208.13,14078.6 c 601.56,0 1089.21,487.7 1089.21,1089.2 0,601.5 -487.65,1089.1 -1089.21,1089.1 -601.53,0 -1089.15,-487.6 -1089.15,-1089.1 0,-601.5 487.62,-1089.2 1089.15,-1089.2"
         style="fill:#bdbcbc;fill-opacity:1;fill-rule:nonzero;stroke:none"
         id="path14" />
      <path
         d="m 6471.02,7741.6 c 1591.95,0 2882.5,1290.5 2882.5,2882.5 0,1591.9 -1290.55,2882.4 -2882.5,2882.4 -1591.96,0 -2882.43,-1290.5 -2882.43,-2882.4 0,-1592 1290.47,-2882.5 2882.43,-2882.5"
         style="fill:#bdbcbc;fill-opacity:1;fill-rule:nonzero;stroke:none"
         id="path16" />
      <path
         d="m 11311.8,12846.4 c 923.6,0 1672.3,748.7 1672.3,1672.3 0,923.6 -748.7,1672.2 -1672.3,1672.2 -923.6,0 -1672.27,-748.6 -1672.27,-1672.2 0,-923.6 748.67,-1672.3 1672.27,-1672.3"
         style="fill:#bdbcbc;fill-opacity:1;fill-rule:nonzero;stroke:none"
         id="path18" />
      <path
         d="m 9233.2,3766.9 c -1933.24,0 -3711.4,663.6 -5119.37,1775.4 1514.14,-1917.8 3859.65,-3148.8 6492.77,-3148.8 4558.3,0 8254.8,3688.8 8267.9,8244 0,8.1 0.3,16.1 0.3,24.2 0,2633.1 -1231,4978.6 -3148.8,6492.7 33.4,-42.2 66.3,-84.9 99,-127.9 1052,-1387.1 1676.4,-3116.3 1676.4,-4991.5 0,-4566.3 -3701.8,-8268.1 -8268.2,-8268.1"
         style="fill:#bdbcbc;fill-opacity:1;fill-rule:nonzero;stroke:none"
         id="path20" />
      <path
         d="m 9123.98,5665.2 c 0,-245.1 198.72,-443.8 443.83,-443.8 245.12,0 443.89,198.7 443.89,443.8 0,245.2 -198.77,443.9 -443.89,443.9 -245.11,0 -443.83,-198.7 -443.83,-443.9"
         style="fill:#bdbcbc;fill-opacity:1;fill-rule:nonzero;stroke:none"
         id="path22" />
      <path
         d="m 11883.6,8683.5 c 0,-528.6 428.5,-957.2 957.1,-957.2 528.7,0 957.2,428.6 957.2,957.2 0,528.6 -428.5,957.1 -957.2,957.1 -528.6,0 -957.1,-428.5 -957.1,-957.1"
         style="fill:#bdbcbc;fill-opacity:1;fill-rule:nonzero;stroke:none"
         id="path24" />
    </g>
  </g>
</svg>
